<?xml version="1.0" standalone="no"?><svg xmlns="http://www.w3.org/2000/svg" viewBox="0 0 1440 320"><path fill="#e7008a" fill-opacity="1" d="M0,256L6.2,245.3C12.3,235,25,213,37,224C49.2,235,62,277,74,261.3C86.2,245,98,171,111,160C123.1,149,135,203,148,197.3C160,192,172,128,185,138.7C196.9,149,209,235,222,272C233.8,309,246,299,258,256C270.8,213,283,139,295,90.7C307.7,43,320,21,332,16C344.6,11,357,21,369,42.7C381.5,64,394,96,406,117.3C418.5,139,431,149,443,133.3C455.4,117,468,75,480,74.7C492.3,75,505,117,517,149.3C529.2,181,542,203,554,213.3C566.2,224,578,224,591,213.3C603.1,203,615,181,628,160C640,139,652,117,665,117.3C676.9,117,689,139,702,160C713.8,181,726,203,738,224C750.8,245,763,267,775,245.3C787.7,224,800,160,812,112C824.6,64,837,32,849,42.7C861.5,53,874,107,886,133.3C898.5,160,911,160,923,138.7C935.4,117,948,75,960,53.3C972.3,32,985,32,997,26.7C1009.2,21,1022,11,1034,58.7C1046.2,107,1058,213,1071,250.7C1083.1,288,1095,256,1108,229.3C1120,203,1132,181,1145,149.3C1156.9,117,1169,75,1182,90.7C1193.8,107,1206,181,1218,192C1230.8,203,1243,149,1255,112C1267.7,75,1280,53,1292,42.7C1304.6,32,1317,32,1329,80C1341.5,128,1354,224,1366,256C1378.5,288,1391,256,1403,229.3C1415.4,203,1428,181,1434,170.7L1440,160L1440,320L1433.8,320C1427.7,320,1415,320,1403,320C1390.8,320,1378,320,1366,320C1353.8,320,1342,320,1329,320C1316.9,320,1305,320,1292,320C1280,320,1268,320,1255,320C1243.1,320,1231,320,1218,320C1206.2,320,1194,320,1182,320C1169.2,320,1157,320,1145,320C1132.3,320,1120,320,1108,320C1095.4,320,1083,320,1071,320C1058.5,320,1046,320,1034,320C1021.5,320,1009,320,997,320C984.6,320,972,320,960,320C947.7,320,935,320,923,320C910.8,320,898,320,886,320C873.8,320,862,320,849,320C836.9,320,825,320,812,320C800,320,788,320,775,320C763.1,320,751,320,738,320C726.2,320,714,320,702,320C689.2,320,677,320,665,320C652.3,320,640,320,628,320C615.4,320,603,320,591,320C578.5,320,566,320,554,320C541.5,320,529,320,517,320C504.6,320,492,320,480,320C467.7,320,455,320,443,320C430.8,320,418,320,406,320C393.8,320,382,320,369,320C356.9,320,345,320,332,320C320,320,308,320,295,320C283.1,320,271,320,258,320C246.2,320,234,320,222,320C209.2,320,197,320,185,320C172.3,320,160,320,148,320C135.4,320,123,320,111,320C98.5,320,86,320,74,320C61.5,320,49,320,37,320C24.6,320,12,320,6,320L0,320Z"></path></svg>